# xmcd CD database file
#
# Track frame offsets:
#	150
#	28222
#	44123
#	59413
#	73716
#	86577
#	99887
#	115262
#	128011
#	139712
#	154035
#	167557
#	182487
#	196345
#	212512
#	226649
#	241208
#	257119
#
# Disc length: 3681 seconds
#
# Revision: 0
# Processed by: cddbd v1.5.1PL0 Copyright (c) Steve Scherf et al.
# Submitted via: CDex 1.51
#
DISCID=f10e5f12
DTITLE=Louis Armstrong - On The Sunny Side Of The Street CD1
DYEAR=2004
DGENRE=Jazz
TTITLE0=Muskrat Ramble
TTITLE1=I Can't Give You Anything But Love
TTITLE2=Georgia On My Mind
TTITLE3=A Monday Date
TTITLE4=Alligator Crawl
TTITLE5=S.O.L. Blues
TTITLE6=Shine
TTITLE7=Baby, Won't You Please Come Home?
TTITLE8=Come Back Sweet Papa
TTITLE9=Put'em Down Blues
TTITLE10=Solitude
TTITLE11=Ain't Misbehavin'
TTITLE12=Melancholy Blues
TTITLE13=Keyhole Blues
TTITLE14=Jazz Lips
TTITLE15=Hotter Than That
TTITLE16='C' Jam Blues
TTITLE17=Black And Blue
EXTD=YEAR: 2004
EXTT0=
EXTT1=
EXTT2=
EXTT3=
EXTT4=
EXTT5=
EXTT6=
EXTT7=
EXTT8=
EXTT9=
EXTT10=
EXTT11=
EXTT12=
EXTT13=
EXTT14=
EXTT15=
EXTT16=
EXTT17=
PLAYORDER=
